<?xml version="1.0" encoding="UTF-8"?>
<svg id="Laag_2" data-name="Laag 2" xmlns="http://www.w3.org/2000/svg" viewBox="0 0 179.66 31.87">
  <defs>
    <style>
      .cls-1 {
        fill: none;
      }

      .cls-1, .cls-2, .cls-3, .cls-4, .cls-5, .cls-6 {
        stroke-width: 0px;
      }

      .cls-2 {
        fill: #fbbc05;
      }

      .cls-3 {
        fill: #34a853;
      }

      .cls-4 {
        fill: #4285f4;
      }

      .cls-5 {
        fill: #ea4335;
      }

      .cls-6 {
        fill: #fff;
      }
    </style>
  </defs>
  <g id="Laag_1-2" data-name="Laag 1">
    <rect class="cls-1" width="179.66" height="31.87"/>
    <g>
      <g>
        <path class="cls-4" d="M31.23,16.3c0-1.13-.1-2.22-.29-3.26h-15.01v6.17h8.58c-.38,1.98-1.51,3.66-3.2,4.79v4.01h5.17c3.01-2.78,4.75-6.87,4.75-11.72Z"/>
        <path class="cls-3" d="M15.93,31.87c4.3,0,7.91-1.42,10.55-3.85l-5.17-4.01c-1.42.96-3.23,1.54-5.37,1.54-4.14,0-7.66-2.8-8.92-6.56H1.71v4.11c2.62,5.2,8,8.78,14.22,8.78Z"/>
        <path class="cls-2" d="M7.01,18.96c-.32-.96-.51-1.97-.51-3.03s.19-2.07.51-3.03v-4.11H1.71c-1.09,2.14-1.71,4.56-1.71,7.14s.62,5,1.71,7.14l4.13-3.22s1.17-.9,1.17-.9Z"/>
        <path class="cls-5" d="M15.93,6.34c2.35,0,4.43.81,6.1,2.38l4.56-4.56C23.83,1.58,20.24,0,15.93,0,9.71,0,4.33,3.58,1.71,8.79l5.3,4.11c1.26-3.77,4.78-6.56,8.92-6.56Z"/>
        <path class="cls-1" d="M0,0h31.87v31.87H0V0Z"/>
      </g>
      <g>
        <path class="cls-6" d="M52.65,20.88c-.88.31-2.6.83-4.65.83-2.29,0-4.17-.58-5.66-2-1.3-1.26-2.11-3.28-2.11-5.63.02-4.51,3.12-7.81,8.19-7.81,1.75,0,3.12.38,3.77.7l-.47,1.59c-.81-.36-1.82-.65-3.34-.65-3.68,0-6.08,2.29-6.08,6.08s2.31,6.1,5.84,6.1c1.28,0,2.15-.18,2.6-.4v-4.51h-3.07v-1.57h4.98v7.27Z"/>
        <path class="cls-6" d="M65.51,16.03c0,4.02-2.78,5.77-5.41,5.77-2.94,0-5.21-2.15-5.21-5.59,0-3.64,2.38-5.77,5.39-5.77s5.23,2.27,5.23,5.59ZM56.89,16.15c0,2.38,1.37,4.17,3.3,4.17s3.3-1.77,3.3-4.22c0-1.84-.92-4.17-3.25-4.17s-3.34,2.15-3.34,4.22Z"/>
        <path class="cls-6" d="M77.83,16.03c0,4.02-2.78,5.77-5.41,5.77-2.94,0-5.21-2.15-5.21-5.59,0-3.64,2.38-5.77,5.39-5.77s5.23,2.27,5.23,5.59ZM69.21,16.15c0,2.38,1.37,4.17,3.3,4.17s3.3-1.77,3.3-4.22c0-1.84-.92-4.17-3.25-4.17s-3.34,2.15-3.34,4.22Z"/>
        <path class="cls-6" d="M89.68,10.69c-.04.79-.09,1.66-.09,2.98v6.31c0,2.49-.49,4.02-1.55,4.96-1.05.99-2.58,1.3-3.95,1.3s-2.74-.31-3.61-.9l.49-1.5c.72.45,1.84.85,3.19.85,2.02,0,3.5-1.05,3.5-3.79v-1.21h-.04c-.61,1.01-1.77,1.82-3.46,1.82-2.69,0-4.62-2.29-4.62-5.3,0-3.68,2.4-5.77,4.89-5.77,1.89,0,2.92.99,3.39,1.89h.04l.09-1.64h1.73ZM87.63,14.98c0-.34-.02-.63-.11-.9-.36-1.14-1.32-2.09-2.76-2.09-1.89,0-3.23,1.59-3.23,4.11,0,2.13,1.08,3.9,3.21,3.9,1.21,0,2.31-.76,2.74-2.02.11-.34.16-.72.16-1.06v-1.95Z"/>
        <path class="cls-6" d="M92.86,5.62h1.97v15.93h-1.97V5.62Z"/>
        <path class="cls-6" d="M99.26,16.48c.04,2.67,1.75,3.77,3.73,3.77,1.41,0,2.27-.25,3.01-.56l.34,1.41c-.7.31-1.89.67-3.61.67-3.34,0-5.34-2.2-5.34-5.48s1.93-5.86,5.09-5.86c3.55,0,4.49,3.12,4.49,5.12,0,.4-.04.72-.07.92h-7.63ZM105.05,15.07c.02-1.26-.52-3.21-2.74-3.21-2,0-2.87,1.84-3.03,3.21h5.77Z"/>
      </g>
    </g>
  </g>
</svg>