<?xml version="1.0" encoding="UTF-8"?>
<svg id="Layer_2" xmlns="http://www.w3.org/2000/svg" viewBox="0 0 4879.66 4879.66">
  <defs>
    <style>
      .cls-1 {
        fill: #fff;
      }
    </style>
  </defs>
  <g id="Layer_1-2" data-name="Layer_1">
    <g>
      <rect class="cls-1" x="0" y="0" width="4879.66" height="4879.66" rx="2439.83" ry="2439.83"/>
      <g>
        <path d="M852.22,1761.19v391.15h69.19v100.64h-302.7v-100.64h79.02v-391.15h-79.02v-100.64h308.6v100.64h-75.09ZM1196.99,1761.19l-167.47,162.36,194.59,228.8h61.33v100.64h-318.03v-100.64h69.19l-179.26-210.32,193.02-180.83h-70.76v-100.64h289.73v100.64h-72.33Z"/>
        <path d="M1698.61,1761.19l123.83,391.15h70.76v100.64h-291.3v-100.64h75.87l-28.3-100.64h-153.71l-31.45,100.64h79.02v100.64h-261.82v-100.64h73.12l115.18-391.15h-79.02v-100.64h387.61v100.64h-79.8ZM1575.17,1785.17l-53.07,178.87h103l-49.93-178.87Z"/>
        <path d="M2458.5,1848.86c0,64.47-20.12,111.98-60.34,142.51-40.23,30.53-102.8,45.8-187.72,45.8h-62.11v115.18h82.95v100.64h-312.14v-100.64h74.69v-391.15h-74.69v-100.64h288.16c84.65,0,147.68,15.4,189.09,46.19,41.41,30.8,62.11,78.17,62.11,142.11ZM2295.75,1848.86c0-24.63-4.98-43.44-14.94-56.41-9.96-12.97-24.31-21.42-43.05-25.36-18.74-3.93-40.43-5.9-65.06-5.9h-24.37v177.69h24.37c32.76,0,58.11-3.34,76.07-10.02,17.95-6.68,30.27-16.44,36.95-29.29,6.68-12.84,10.02-29.74,10.02-50.71Z"/>
        <path d="M3032.85,1848.86c0,64.47-20.12,111.98-60.34,142.51-40.23,30.53-102.8,45.8-187.72,45.8h-62.11v115.18h82.95v100.64h-312.14v-100.64h74.69v-391.15h-74.69v-100.64h288.16c84.65,0,147.68,15.4,189.09,46.19,41.41,30.8,62.11,78.17,62.11,142.11ZM2870.1,1848.86c0-24.63-4.98-43.44-14.94-56.41-9.96-12.97-24.31-21.42-43.05-25.36-18.74-3.93-40.43-5.9-65.06-5.9h-24.37v177.69h24.37c32.76,0,58.11-3.34,76.07-10.02,17.95-6.68,30.27-16.44,36.95-29.29,6.68-12.84,10.02-29.74,10.02-50.71Z"/>
        <path d="M3479.04,1848.07v-86.88h-183.59v136.02h148.21v99.85h-148.21v155.28h183.59v-87.67h113.61v188.3h-522.45v-100.64h71.55v-391.15h-71.55v-100.64h522.45v187.52h-113.61Z"/>
        <path d="M4190.98,1822.12c0,36.17-8.45,66.57-25.36,91.2-16.9,24.64-42.52,44.69-76.85,60.15l95.53,178.87h76.66v100.64h-180.44l-133.66-259.07h-67.62v158.43h74.3v100.64h-310.17v-100.64h81.38v-391.15h-81.38v-100.64h338.08c65.52,0,116.82,13.83,153.91,41.47,37.08,27.65,55.62,67.68,55.62,120.1ZM4029.8,1828.81c0-22.54-7.21-39.44-21.62-50.71-14.42-11.27-34.07-16.9-58.97-16.9h-69.98v137.59h56.61c62.64,0,93.96-23.32,93.96-69.98Z"/>
        <path d="M1836.98,2930.17c0,62.11-13.17,114.79-39.51,158.03-26.34,43.24-62.7,75.87-109.09,97.89-46.39,22.01-99.99,33.02-160.79,33.02h-326.68v-100.64h90.02v-391.15h-90.02v-100.64h319.61c61.06,0,115.25,10.42,162.55,31.25,47.3,20.84,84.78,53.99,112.43,99.46,27.65,45.47,41.48,103.06,41.48,172.78ZM1675.8,2925.06c0-65.26-15.13-114.53-45.41-147.81-30.27-33.28-74.76-49.93-133.46-49.93h-52.28v391.15h36.17c53.2,0,94.15-8.97,122.85-26.93,28.7-17.95,47.9-40.75,57.59-68.4,9.69-27.65,14.55-60.34,14.55-98.08Z"/>
        <path d="M2283.56,2814.2v-86.88h-183.59v136.02h148.21v99.85h-148.21v155.28h183.59v-87.67h113.61v188.3h-522.45v-100.64h71.55v-391.15h-71.55v-100.64h522.45v187.52h-113.61Z"/>
        <path d="M3075.31,2930.17c0,62.11-13.17,114.79-39.51,158.03-26.34,43.24-62.7,75.87-109.09,97.89-46.39,22.01-99.99,33.02-160.79,33.02h-326.68v-100.64h90.02v-391.15h-90.02v-100.64h319.61c61.06,0,115.25,10.42,162.55,31.25,47.3,20.84,84.78,53.99,112.43,99.46,27.65,45.47,41.48,103.06,41.48,172.78ZM2914.13,2925.06c0-65.26-15.13-114.53-45.41-147.81-30.27-33.28-74.76-49.93-133.46-49.93h-52.28v391.15h36.17c53.2,0,94.15-8.97,122.85-26.93,28.7-17.95,47.9-40.75,57.59-68.4,9.69-27.65,14.55-60.34,14.55-98.08Z"/>
        <path d="M3521.89,2814.2v-86.88h-183.59v136.02h148.21v99.85h-148.21v155.28h183.59v-87.67h113.61v188.3h-522.45v-100.64h71.55v-391.15h-71.55v-100.64h522.45v187.52h-113.61Z"/>
      </g>
    </g>
  </g>
</svg>